<svg xmlns="http://www.w3.org/2000/svg" xmlns:svg="http://www.w3.org/2000/svg" id="svg26" width="15" height="20" fill="#000" version="1.1" viewBox="0 0 20 26.667"><metadata id="metadata32"/><path id="path22" fill="none" d="M 0,0 H 24 V 24 H 0 Z"/><path id="path24" d="m 9.9999736,19.968204 c 1.2941474,0 2.3529954,-1.085712 2.3529954,-2.412693 0,-1.32698 -1.058848,-2.412691 -2.3529954,-2.412691 -1.2941459,0 -2.3529931,1.085711 -2.3529931,2.412691 0,1.326981 1.0588471,2.412693 2.3529931,2.412693 z M 17.058957,9.1110883 H 15.882461 V 6.698396 c 0,-3.3295155 -2.635355,-6.03173092 -5.8824874,-6.03173092 -3.2471308,0 -5.8824842,2.70221542 -5.8824842,6.03173092 h 2.2353443 c 0,-2.062852 1.635331,-3.7396733 3.6471399,-3.7396733 2.0118104,0 3.6471434,1.6768213 3.6471434,3.7396733 V 9.1110883 H 2.9409923 c -1.2941467,0 -2.35299395,1.0857117 -2.35299395,2.4126927 v 12.063461 c 0,1.326982 1.05884725,2.412693 2.35299395,2.412693 H 17.058957 c 1.294147,0 2.352995,-1.085711 2.352995,-2.412693 V 11.523781 c 0,-1.326981 -1.058848,-2.4126927 -2.352995,-2.4126927 z m 0,14.4761537 H 2.9409923 V 11.523781 H 17.058957 Z" style="fill:#7b7e9e;fill-opacity:1;stroke:none;stroke-width:1.19133;stroke-opacity:1"/></svg>