<svg xmlns="http://www.w3.org/2000/svg" xmlns:svg="http://www.w3.org/2000/svg" id="svg8" width="32" height="32" version="1.1" viewBox="0 0 8.467 8.467"><metadata id="metadata5"/><g id="layer1" transform="translate(0,-288.53334)"><path style="fill:#fff;fill-opacity:1;stroke:none;stroke-width:3.90235829;stroke-linecap:round;stroke-linejoin:bevel;stroke-miterlimit:4;stroke-dasharray:none;stroke-opacity:1;paint-order:normal" id="rect5088" d="M 8 4 C 5.7840003 4 4 5.7840252 4 8 L 4 24 C 4 26.216013 5.7840003 28 8 28 L 24 28 C 26.216 28 28 26.216013 28 24 L 28 8 C 28 5.7840252 26.216 4 24 4 L 8 4 z M 10.5 8 A 2.4999999 2.4999999 0 0 1 13 10.5 A 2.4999999 2.4999999 0 0 1 10.5 13 A 2.4999999 2.4999999 0 0 1 8 10.5 A 2.4999999 2.4999999 0 0 1 10.5 8 z M 21.5 8 A 2.4999999 2.4999999 0 0 1 24 10.5 A 2.4999999 2.4999999 0 0 1 21.5 13 A 2.4999999 2.4999999 0 0 1 19 10.5 A 2.4999999 2.4999999 0 0 1 21.5 8 z M 16 13.5 A 2.4999999 2.4999999 0 0 1 18.5 16 A 2.4999999 2.4999999 0 0 1 16 18.5 A 2.4999999 2.4999999 0 0 1 13.5 16 A 2.4999999 2.4999999 0 0 1 16 13.5 z M 10.5 19 A 2.4999999 2.4999999 0 0 1 13 21.5 A 2.4999999 2.4999999 0 0 1 10.5 24 A 2.4999999 2.4999999 0 0 1 8 21.5 A 2.4999999 2.4999999 0 0 1 10.5 19 z M 21.5 19 A 2.4999999 2.4999999 0 0 1 24 21.5 A 2.4999999 2.4999999 0 0 1 21.5 24 A 2.4999999 2.4999999 0 0 1 19 21.5 A 2.4999999 2.4999999 0 0 1 21.5 19 z" transform="matrix(0.26458333,0,0,0.26458333,0,288.53334)"/></g></svg>