<svg xmlns="http://www.w3.org/2000/svg" xmlns:svg="http://www.w3.org/2000/svg" id="svg6" width="32" height="32" version="1.1" viewBox="0 0 32 32"><metadata id="metadata12"/><g id="g841" transform="matrix(0.69624803,0,0,0.69625965,4.8600315,4.8598456)"><ellipse id="circle4" cx="16" cy="16" fill="#010101" rx="8.618" ry="8.617" style="fill:#fff;fill-opacity:1;stroke-width:.263765"/><path style="fill:#fff;fill-opacity:1;stroke-width:.263765" id="path855" d="m 17.43627,27.489966 v 4.308738 h -2.87254 v -4.308738 z m 7.703959,-4.380929 3.046738,3.046737 -2.031193,2.031193 -3.046737,-3.046738 z m 2.349737,-8.545307 h 4.308738 v 2.87254 H 27.489966 Z M 23.109037,6.8597709 26.155774,3.813033 28.186967,5.8442255 25.140229,8.8909634 Z M 14.56373,4.510034 V 0.201296 h 2.87254 V 4.510034 Z M 6.8597709,8.8909634 3.813033,5.8442255 5.8442255,3.813033 8.8909634,6.8597709 Z M 4.510034,17.43627 H 0.201296 V 14.56373 H 4.510034 Z M 8.8909634,25.140229 5.8442255,28.186967 3.813033,26.155774 6.8597709,23.109037 Z"/></g></svg>