<svg xmlns="http://www.w3.org/2000/svg" xmlns:svg="http://www.w3.org/2000/svg" id="svg4" width="32" height="32" version="1" viewBox="0 0 32 32"><metadata id="metadata10"/><path id="path2" d="M 26.943304,20.289449 16.830858,14.320394 v -1.016525 c 0,-1.152142 -1.257275,-1.652844 -1.257275,-1.652844 -0.8137,-0.396049 -0.741691,-1.251514 -0.741691,-1.251514 0,-1.003804 0.897711,-1.325924 1.29856,-1.325924 0.672083,0 1.332164,0.373246 1.401773,1.226551 0.109213,1.339366 1.62572,0.998524 1.62572,-0.07681 0.0019,-1.015325 -0.924594,-2.797785 -3.038534,-2.797785 -2.284362,0 -2.941083,2.233956 -2.941083,2.940363 0,0.532865 0.08401,1.024926 0.412851,1.586595 0.559269,0.954358 1.677087,1.104136 1.677087,1.735894 v 0.632238 L 5.0533273,20.311772 c -1.008124,0.595273 -1.189587,1.861189 -0.97092,2.629283 0.212426,0.745052 0.960119,1.633402 2.305244,1.633402 H 25.484404 c 1.504986,0 2.19195,-0.863627 2.405097,-1.609159 0.216026,-0.765694 0.216026,-1.956241 -0.948117,-2.673929 z M 25.509848,22.89857 H 6.4174153 c -0.621677,0.024 -1.005724,-0.846344 -0.391248,-1.230391 l 9.9605067,-5.815196 9.906981,5.789512 c 0.614956,0.435174 0.281555,1.253675 -0.384047,1.255355 z" style="fill:#fdfdfd;fill-opacity:1;stroke-width:.24003"/></svg>