<svg xmlns="http://www.w3.org/2000/svg" xmlns:svg="http://www.w3.org/2000/svg" id="Layer_1" width="32" height="32" x="0" y="0" version="1.1" viewBox="0 0 32 32" xml:space="preserve"><metadata id="metadata13"/><g id="g841" transform="matrix(0.23781213,0,0,0.23781213,5.9999999,4.1093935)" style="fill:#fff;fill-opacity:1"><path id="path2" d="m 58.2,24.5 c -2.2,0 -4,1.8 -4,4 0,0 0,0 0,0 0,2.2 1.8,4 4,4 2.2,0 4,-1.8 4,-4 0,0 0,0 0,0 0,-2.2 -1.8,-4 -4,-4 0,0 0,0 0,0 z m -0.9,32.8 c 0,2.2 1.8,4 4,4 2.2,0 4,-1.8 4,-4 0,-2.2 -1.8,-4 -4,-4 0,0 0,0 0,0 -2.2,0 -4,1.8 -4,4 z M 28,20.1 c -2.2,0 -4,1.9 -3.9,4.1 0,2.2 1.8,3.9 3.9,3.9 2.2,0 4,-1.8 4,-4 0,0 0,0 0,0 0.1,-2.2 -1.7,-4 -4,-4 0.1,0 0,0 0,0 z" style="fill:#fff;fill-opacity:1"/><path id="path4" d="M 46.1,0 C 28.9,0 13,12.9 9.7,27.2 9,30.3 8.2,38.6 8.2,38.6 l -7.9,20 C 0.1,58.9 0,59.3 0,59.8 c 0,1.7 1.4,3.1 3.1,3.1 h 5.1 v 10.6 c 0,8.3 6.7,15 15,15 h 5.9 V 100 H 69.6 V 67.8 C 78.4,60.9 84.1,50.1 84.1,38 84,17 67.1,0 46.1,0 Z M 17.5,46.2 c -2.3,0 -4.2,-1.9 -4.2,-4.2 0,-2.3 1.9,-4.2 4.2,-4.2 2.3,0 4.3,1.9 4.3,4.2 -0.1,2.3 -2,4.2 -4.3,4.2 0,0 0,0 0,0 z m 56,-5.8 -3.9,3.9 -4.9,-3.3 c -0.9,0.5 -1.9,0.9 -2.9,1.1 l -0.9,5.2 h 1.8 l 0.5,2.8 c 0.2,0 0.4,0.1 0.6,0.1 0.5,0.2 1,0.4 1.4,0.7 l 2.2,-1.6 1.8,1.8 -1.6,2.3 c 0.4,0.6 0.6,1.3 0.8,2 l 2.7,0.5 v 2.6 L 68.3,59 c -0.1,0.2 -0.1,0.4 -0.2,0.6 -0.2,0.5 -0.4,1 -0.7,1.4 L 69,63.2 67.2,65 64.9,63.4 c -0.6,0.4 -1.3,0.6 -2,0.8 l -0.5,2.7 H 59.8 L 59.3,64.1 C 59.2,64 59,64 58.8,63.9 58.3,63.7 57.9,63.5 57.4,63.2 l -2.2,1.6 -1.9,-1.8 1.6,-2.3 c -0.4,-0.6 -0.6,-1.3 -0.8,-2 l -2.7,-0.5 v -2.6 l 2.8,-0.5 c 0.1,-0.2 0.1,-0.4 0.2,-0.6 0.2,-0.5 0.4,-0.9 0.7,-1.4 l -1.5,-2.1 1.8,-1.8 2.3,1.6 c 0.6,-0.4 1.3,-0.6 2,-0.8 l 0.4,-2.3 h -4.8 l -1,-5.8 c -0.2,-0.1 -0.4,-0.1 -0.7,-0.2 -0.8,-0.3 -1.5,-0.6 -2.2,-1 l -4.6,3.3 -3.9,-4 3.4,-4.8 c -0.5,-0.9 -0.9,-1.9 -1.1,-2.9 l -5.6,-1 v -4.6 l -2.8,0.5 c 0,0.1 -0.1,0.3 -0.1,0.4 -0.2,0.5 -0.4,1 -0.7,1.4 l 2,3 -2.6,2.6 -3.2,-2.2 c -0.6,0.3 -1.2,0.5 -1.8,0.7 l -0.6,3.7 H 26.2 L 25.5,33 c -0.1,0 -0.3,-0.1 -0.4,-0.1 -0.5,-0.2 -1,-0.4 -1.4,-0.7 l -3.1,2.2 -2.6,-2.7 2.2,-3.2 c -0.3,-0.6 -0.5,-1.2 -0.7,-1.8 l -3.7,-0.6 v -3.7 l 3.8,-0.7 c 0,-0.1 0.1,-0.3 0.1,-0.4 0.2,-0.5 0.4,-1 0.7,-1.4 l -2.2,-3.1 2.6,-2.6 3.2,2.2 c 0.6,-0.3 1.2,-0.6 1.8,-0.7 L 26.4,12 H 30 l 0.7,3.8 c 0.1,0 0.3,0.1 0.4,0.1 0.5,0.2 1,0.4 1.4,0.7 l 3.1,-2.2 2.6,2.6 -2.2,3.2 c 0.3,0.6 0.5,1.2 0.7,1.8 l 3.7,0.6 v 2.7 l 4.8,-0.8 c 0.1,-0.2 0.1,-0.4 0.2,-0.7 0.3,-0.8 0.7,-1.5 1.1,-2.2 l -3.3,-4.6 4,-4 4.8,3.4 c 0.9,-0.5 1.9,-0.9 2.9,-1.1 l 0.9,-5.6 h 5.6 l 1,5.8 c 0.2,0.1 0.4,0.1 0.7,0.2 0.8,0.3 1.5,0.6 2.2,1.1 l 4.6,-3.3 3.9,3.9 -3.4,4.8 c 0.5,0.9 0.9,1.9 1.1,2.9 l 5.6,1 v 5.6 l -5.8,1 c -0.1,0.2 -0.1,0.4 -0.2,0.7 -0.3,0.8 -0.7,1.5 -1.1,2.2 z" style="fill:#fff;fill-opacity:1"/><rect id="rect6" width="10.5" height="9.2" x="12" y="37" style="fill:#fff;fill-opacity:1"/></g></svg>