<svg xmlns="http://www.w3.org/2000/svg" xmlns:svg="http://www.w3.org/2000/svg" id="svg6" width="32" height="32" version="1.1" viewBox="0 0 32 32"><metadata id="metadata12"/><g id="g841" transform="matrix(0.20017181,0,0,0.20017181,3.9893911,3.9896914)"><path id="path2" d="M 60,19.09 C 22.382,19.09 0.053,60 0.053,60 c 0,0 22.33,40.91 59.947,40.91 37.617,0 59.95,-40.91 59.95,-40.91 0,0 -22.332,-40.91 -59.95,-40.91 z m 0,65.32 C 46.54,84.41 35.59,73.46 35.59,60 35.59,46.54 46.54,35.59 60,35.59 c 13.46,0 24.407,10.95 24.407,24.41 0,13.46 -10.95,24.41 -24.41,24.41 z" style="fill:#fff;fill-opacity:1"/><circle id="circle4" cx="60.001" cy="60" r="14.409" style="fill:#fefefe;fill-opacity:1"/></g></svg>