<svg xmlns="http://www.w3.org/2000/svg" xmlns:svg="http://www.w3.org/2000/svg" id="svg4" width="256" height="46" fill="none" version="1.1" viewBox="0 0 256 46"><metadata id="metadata10"/><defs id="defs8"><rect id="rect372" width="184.663" height="56.921" x="29.649" y="7.079"/><rect id="rect348" width="334.519" height="47.489" x="12.5" y="14.599"/></defs><g id="layer1" style="display:inline"><path style="fill:none;stroke:#5e6ca2;stroke-width:3.36859;stroke-linecap:round;stroke-linejoin:miter;stroke-dasharray:none;stroke-opacity:1" id="path1143" d="m 4.663163,42.719633 c 37.153862,0 51.987247,-5.840333 62.933473,-14.653097"/><path style="fill:none;stroke:#5e6ca2;stroke-width:3.36859;stroke-linecap:round;stroke-linejoin:miter;stroke-dasharray:none;stroke-opacity:1" id="path1638" d="m 5.0265191,2.3423654 c 37.1538609,0 51.9872459,5.8403322 62.9334719,14.6530966"/><path style="fill:none;stroke:#5e6ca2;stroke-width:3.36859;stroke-linecap:round;stroke-linejoin:miter;stroke-dasharray:none;stroke-opacity:1" id="path1644" d="m 79.639105,32.283687 c 16.637747,12.842999 79.893145,11.678405 94.796755,0"/><path style="fill:none;stroke:#5e6ca2;stroke-width:3.36859;stroke-linecap:round;stroke-linejoin:miter;stroke-dasharray:none;stroke-opacity:1" id="path1646" d="m 79.639105,13.628232 c 16.637747,-12.84299898 79.893145,-11.6784051 94.796755,0"/><path style="fill:#183399;fill-opacity:1;stroke:#8896cc;stroke-width:4.21074;stroke-linecap:round;stroke-linejoin:miter;stroke-dasharray:none;stroke-opacity:1" id="path1648" d="M 10.268838,7.5588228 V 18.867646"/><path style="fill:#183399;fill-opacity:1;stroke:#8896cc;stroke-width:4.21074;stroke-linecap:round;stroke-linejoin:miter;stroke-dasharray:none;stroke-opacity:1" id="path2003" d="M 24.199955,8.0221783 24.305198,18.867646"/><path style="fill:#183399;fill-opacity:1;stroke:#8896cc;stroke-width:4.21074;stroke-linecap:round;stroke-linejoin:miter;stroke-dasharray:none;stroke-opacity:1" id="path2007" d="m 38.341559,9.774533 v 9.093113"/><path style="fill:#183399;fill-opacity:1;stroke:#8896cc;stroke-width:4.21074;stroke-linecap:round;stroke-linejoin:miter;stroke-dasharray:none;stroke-opacity:1" id="path2011" d="m 52.377919,13.141809 v 5.725837"/><path style="fill:#183399;fill-opacity:1;stroke:#8896cc;stroke-width:4.21074;stroke-linecap:round;stroke-linejoin:miter;stroke-dasharray:none;stroke-opacity:1" id="path2027" d="M 10.268838,37.25943 V 25.950607"/><path style="fill:#183399;fill-opacity:1;stroke:#8896cc;stroke-width:4.21074;stroke-linecap:round;stroke-linejoin:miter;stroke-dasharray:none;stroke-opacity:1" id="path2029" d="M 24.199955,36.796074 24.305198,25.950607"/><path style="fill:#183399;fill-opacity:1;stroke:#8896cc;stroke-width:4.21074;stroke-linecap:round;stroke-linejoin:miter;stroke-dasharray:none;stroke-opacity:1" id="path2031" d="M 38.341559,35.04372 V 25.950607"/><path style="fill:#183399;fill-opacity:1;stroke:#8896cc;stroke-width:4.21074;stroke-linecap:round;stroke-linejoin:miter;stroke-dasharray:none;stroke-opacity:1" id="path2033" d="M 52.377919,31.676444 V 25.950607"/><path style="fill:none;stroke:#5e6ca2;stroke-width:3.36859;stroke-linecap:round;stroke-linejoin:miter;stroke-dasharray:none;stroke-opacity:1" id="path2051" d="m 248.42748,42.719633 c -37.15387,0 -51.98725,-5.840333 -62.93348,-14.653097"/><path style="fill:none;stroke:#5e6ca2;stroke-width:3.36859;stroke-linecap:round;stroke-linejoin:miter;stroke-dasharray:none;stroke-opacity:1" id="path2053" d="m 248.06412,2.3423654 c -37.15386,0 -51.98724,5.8403322 -62.93347,14.6530966"/><path style="fill:#183399;fill-opacity:1;stroke:#8896cc;stroke-width:4.21074;stroke-linecap:round;stroke-linejoin:miter;stroke-dasharray:none;stroke-opacity:1" id="path2055" d="M 242.8218,7.5588228 V 18.867646"/><path style="fill:#183399;fill-opacity:1;stroke:#8896cc;stroke-width:4.21074;stroke-linecap:round;stroke-linejoin:miter;stroke-dasharray:none;stroke-opacity:1" id="path2057" d="M 228.89068,8.0221783 228.78544,18.867646"/><path style="fill:#183399;fill-opacity:1;stroke:#8896cc;stroke-width:4.21074;stroke-linecap:round;stroke-linejoin:miter;stroke-dasharray:none;stroke-opacity:1" id="path2059" d="m 214.74908,9.774533 v 9.093113"/><path style="fill:#183399;fill-opacity:1;stroke:#8896cc;stroke-width:4.21074;stroke-linecap:round;stroke-linejoin:miter;stroke-dasharray:none;stroke-opacity:1" id="path2061" d="m 200.71272,13.141809 v 5.725837"/><path style="fill:#183399;fill-opacity:1;stroke:#8896cc;stroke-width:4.21074;stroke-linecap:round;stroke-linejoin:miter;stroke-dasharray:none;stroke-opacity:1" id="path2063" d="M 242.8218,37.25943 V 25.950607"/><path style="fill:#183399;fill-opacity:1;stroke:#8896cc;stroke-width:4.21074;stroke-linecap:round;stroke-linejoin:miter;stroke-dasharray:none;stroke-opacity:1" id="path2065" d="M 228.89068,36.796074 228.78544,25.950607"/><path style="fill:#183399;fill-opacity:1;stroke:#8896cc;stroke-width:4.21074;stroke-linecap:round;stroke-linejoin:miter;stroke-dasharray:none;stroke-opacity:1" id="path2067" d="M 214.74908,35.04372 V 25.950607"/><path style="fill:#183399;fill-opacity:1;stroke:#8896cc;stroke-width:4.21074;stroke-linecap:round;stroke-linejoin:miter;stroke-dasharray:none;stroke-opacity:1" id="path2069" d="M 200.71272,31.676444 V 25.950607"/></g><g id="layer2"><path style="font-size:40px;line-height:1.25;font-family:sans-serif;-inkscape-font-specification:sans-serif;white-space:pre;fill:#04b284;stroke-width:1.215;stroke:#04b284;stroke-opacity:1;stroke-dasharray:none;stroke-linecap:round;stroke-linejoin:round" id="path2859" d="m 94.987632,31.178909 h -9.81881 V 13.608408 h 9.81881 v 1.944075 h -7.604041 v 5.487706 h 7.161087 v 1.919466 h -7.161087 v 6.275179 h 7.604041 z"/><path style="font-size:40px;line-height:1.25;font-family:sans-serif;-inkscape-font-specification:sans-serif;white-space:pre;fill:#04b284;stroke-width:1.215;stroke:#04b284;stroke-opacity:1;stroke-dasharray:none;stroke-linecap:round;stroke-linejoin:round" id="path2861" d="M 109.58049,31.178909 H 97.399263 v -1.673381 l 9.252817,-13.928436 h -8.957515 v -1.968684 h 11.639845 v 1.673381 l -9.25282,13.928436 h 9.4989 z"/><path style="font-size:40px;line-height:1.25;font-family:sans-serif;-inkscape-font-specification:sans-serif;white-space:pre;fill:#04b284;stroke-width:1.215;stroke:#04b284;stroke-opacity:1;stroke-dasharray:none;stroke-linecap:round;stroke-linejoin:round" id="path2863" d="m 111.52458,22.723102 v -1.919466 h 5.95527 v 1.919466 z"/><path style="font-size:40px;line-height:1.25;font-family:sans-serif;-inkscape-font-specification:sans-serif;white-space:pre;fill:#04b284;stroke-width:1.215;stroke:#04b284;stroke-opacity:1;stroke-dasharray:none;stroke-linecap:round;stroke-linejoin:round" id="path2865" d="m 134.92732,22.221399 q 0,4.454146 -2.43625,6.718132 -2.41163,2.239378 -6.74274,2.239378 h -4.8971 V 13.608408 h 5.41388 q 2.65772,0 4.6018,0.984342 1.94407,0.984342 3.00224,2.903808 1.05817,1.894858 1.05817,4.724841 z m -2.33781,0.07382 q 0,-3.519021 -1.74721,-5.143185 -1.7226,-1.648773 -4.8971,-1.648773 h -2.8792 v 13.780785 h 2.38703 q 7.13648,0 7.13648,-6.988827 z"/><path style="font-size:40px;line-height:1.25;font-family:sans-serif;-inkscape-font-specification:sans-serif;white-space:pre;fill:#04b284;stroke-width:1.215;stroke:#04b284;stroke-opacity:1;stroke-dasharray:none;stroke-linecap:round;stroke-linejoin:round" id="path2867" d="M 152.74389,31.178909 H 150.16 l -9.40047,-14.592867 h -0.0984 q 0.0492,0.861299 0.12304,2.140944 0.0738,1.279644 0.0738,2.633114 v 9.818809 h -2.04251 V 13.608408 h 2.55929 l 9.37585,14.54365 h 0.0984 q -0.0246,-0.393737 -0.0738,-1.18121 -0.0246,-0.787474 -0.0738,-1.722598 -0.0246,-0.935125 -0.0246,-1.722598 v -9.917244 h 2.06712 z"/><path style="font-size:40px;line-height:1.25;font-family:sans-serif;-inkscape-font-specification:sans-serif;white-space:pre;fill:#04b284;stroke-width:1.215;stroke:#04b284;stroke-opacity:1;stroke-dasharray:none;stroke-linecap:round;stroke-linejoin:round" id="path2869" d="m 168.54258,31.178909 -2.11633,-5.438488 h -6.96422 l -2.09172,5.438488 h -2.23938 l 6.86578,-17.644326 H 163.99 l 6.84118,17.644326 z m -4.74944,-12.722617 q -0.0738,-0.196869 -0.24609,-0.713648 -0.17226,-0.51678 -0.34452,-1.058168 -0.14765,-0.565996 -0.24609,-0.861299 -0.17226,0.762865 -0.39373,1.501121 -0.22148,0.713648 -0.36913,1.131994 l -1.99329,5.315445 h 5.56153 z"/></g></svg>