<svg xmlns="http://www.w3.org/2000/svg" xmlns:svg="http://www.w3.org/2000/svg" id="svg4" width="35.063" height="34" fill="none" version="1.1" viewBox="0 0 35.063 34"><metadata id="metadata10"/><defs id="defs8"><clipPath id="clipPath298" clipPathUnits="userSpaceOnUse"><rect id="rect300" width="26.783" height="26.811" x="2.608" y="2.594" fill="#fff" d="M 6.7932749,2.5943766 H 25.206725 c 2.318421,0 4.184875,1.866454 4.184875,4.1848745 V 25.220749 c 0,2.31842 -1.866454,4.184874 -4.184875,4.184874 H 6.7932749 c -2.3184205,0 -4.1848746,-1.866454 -4.1848746,-4.184874 V 6.7792511 c 0,-2.3184205 1.8664541,-4.1848745 4.1848746,-4.1848745 z" rx="4.185" style="display:none;stroke-width:.837413"/><path id="lpe_path-effect302" d="M -5,-5 H 37 V 37 H -5 Z M 6.7932749,2.5943766 c -2.3184205,0 -4.1848746,1.866454 -4.1848746,4.1848745 V 25.220749 c 0,2.31842 1.8664541,4.184874 4.1848746,4.184874 H 25.206725 c 2.318421,0 4.184875,-1.866454 4.184875,-4.184874 V 6.7792511 c 0,-2.3184205 -1.866454,-4.1848745 -4.184875,-4.1848745 z" class="powerclip" style="stroke-width:.837413"/></clipPath></defs><path id="rect2" width="32" height="32" x="0" y="0" fill="#fff" d="m 5,0 h 22 c 2.77,0 5,2.23 5,5 v 22 c 0,2.77 -2.23,5 -5,5 H 5 C 2.23,32 0,29.77 0,27 V 5 C 0,2.23 2.23,0 5,0 Z" clip-path="url(#clipPath298)" rx="5" transform="translate(1,1)"/></svg>