<svg xmlns="http://www.w3.org/2000/svg" xmlns:svg="http://www.w3.org/2000/svg" id="svg4" width="211" height="60" fill="none" version="1.1" viewBox="0 0 211 60"><metadata id="metadata10"/><defs id="defs8"><rect id="rect462" width="277.276" height="150.43" x="-30.968" y="-32.336"/><rect id="rect348" width="334.519" height="47.489" x="12.5" y="14.599"/><clipPath id="clipPath1398" clipPathUnits="userSpaceOnUse"><g id="g1414" transform="skewX(-0.64194233)"><rect style="fill:#00f;fill-opacity:1;stroke:none;stroke-width:1.418;stroke-linejoin:round" id="rect1400" width="193.31" height="4.463" x="0" y="10.398"/><rect style="fill:#00f;fill-opacity:1;stroke:none;stroke-width:1.418;stroke-linejoin:round" id="rect1402" width="193.31" height="4.463" x="0" y="19.309"/><rect style="fill:#00f;fill-opacity:1;stroke:none;stroke-width:1.418;stroke-linejoin:round" id="rect1404" width="193.31" height="4.463" x="0" y="28.22"/><rect style="fill:#00f;fill-opacity:1;stroke:none;stroke-width:1.418;stroke-linejoin:round" id="rect1406" width="193.31" height="4.463" x="0" y="37.131"/><rect style="fill:#00f;fill-opacity:1;stroke:none;stroke-width:1.418;stroke-linejoin:round" id="rect1408" width="193.31" height="4.463" x="0" y="46.043"/><rect style="fill:#00f;fill-opacity:1;stroke:none;stroke-width:1.418;stroke-linejoin:round" id="rect1410" width="193.31" height="4.463" x="0" y="54.954"/><rect style="fill:#00f;fill-opacity:1;stroke:none;stroke-width:1.418;stroke-linejoin:round" id="rect1412" width="27.77" height="8.911" x="52.285" y="30.452"/></g></clipPath><clipPath id="clipPath1608" clipPathUnits="userSpaceOnUse"><g id="g1630" transform="scale(0.96824607,1.0327953)"><rect style="fill:#00a700;fill-opacity:1;stroke-width:.0886665;stroke-linejoin:round" id="rect1610" width="145.438" height="3.883" x="0" y="0"/><rect style="fill:#00a700;fill-opacity:1;stroke-width:.0886665;stroke-linejoin:round" id="rect1612" width="145.438" height="3.883" x="0" y="6.207"/><rect style="fill:#00a700;fill-opacity:1;stroke-width:.0886665;stroke-linejoin:round" id="rect1614" width="145.438" height="3.883" x="0" y="12.414"/><rect style="fill:#00a700;fill-opacity:1;stroke-width:.0886665;stroke-linejoin:round" id="rect1616" width="145.438" height="3.883" x="0" y="18.621"/><rect style="fill:#00a700;fill-opacity:1;stroke-width:.0886665;stroke-linejoin:round" id="rect1618" width="145.438" height="3.883" x="0" y="24.829"/><rect style="fill:#00a700;fill-opacity:1;stroke-width:.0886665;stroke-linejoin:round" id="rect1620" width="145.438" height="3.883" x="0" y="31.036"/><rect style="fill:#00a700;fill-opacity:1;stroke-width:.0886665;stroke-linejoin:round" id="rect1622" width="145.438" height="3.883" x="0" y="37.243"/><rect style="fill:#00a700;fill-opacity:1;stroke-width:.0886665;stroke-linejoin:round" id="rect1624" width="145.438" height="3.883" x="0" y="43.45"/><rect style="fill:#00a700;fill-opacity:1;stroke-width:.0886665;stroke-linejoin:round" id="rect1626" width="145.438" height="3.883" x="0" y="55.864"/><rect style="fill:#00a700;fill-opacity:1;stroke-width:.0886665;stroke-linejoin:round" id="rect1628" width="145.438" height="3.883" x="0" y="49.657"/></g></clipPath></defs><g id="text1677" aria-label="NTX" clip-path="url(#clipPath1608)" transform="scale(1.0327953,0.96824607)" style="font-size:87.0333px;line-height:1.25;display:inline;fill:#2c3b8c;stroke-width:2.17583"><path style="font-family:City;-inkscape-font-specification:City" id="path315" d="M 53.264381,8.4422421 H 48.129416 V 61.706623 H 38.990919 Q 36.292887,57.006825 34.378154,53.264393 30.722756,45.866562 24.108225,32.8986 19.49546,24.021203 15.578961,14.621607 V 61.706623 H 1.8276993 v -8.18113 H 6.9626642 V 8.9644419 H 1.8276993 V 0.26111165 H 17.580727 Q 22.976792,11.836541 28.19879,22.193504 36.205854,38.207631 39.426086,46.127662 V 0.26111165 h 13.838295 z"/><path style="font-family:City;-inkscape-font-specification:City" id="path317" d="M 90.6887,17.493706 V 8.4422421 H 81.898337 V 53.525493 h 5.047931 v 8.18113 H 67.015642 v -8.18113 H 72.23764 V 8.4422421 H 63.447276 V 17.493706 H 54.395813 V 0.26111165 h 45.34435 V 17.493706 Z"/><path style="font-family:City;-inkscape-font-specification:City" id="path319" d="m 142.73461,8.4422421 h -4.87387 l -10.96619,22.1064589 11.48839,22.976792 h 4.78684 v 8.18113 h -11.4884 L 121.49848,39.600164 110.88042,61.706623 H 99.740158 v -8.18113 h 4.873862 L 116.18945,30.548701 105.13622,8.4422421 h -4.78683 V 0.26111165 h 11.66246 l 9.48663,21.06205935 10.1829,-21.06205935 h 11.05323 z"/></g><g id="text2013" aria-label="Labs" style="font-size:41.0143px;line-height:1.25;fill:#5e975b;stroke-width:1.02536"><path style="font-family:'IBM 3270 Semi-Narrow';-inkscape-font-specification:'IBM 3270 Semi-Narrow'" id="path418" d="m 135.21715,31.07382 h 2.50187 v 20.055993 h 14.84718 v 2.460859 h -17.34905 z"/><path style="font-family:'IBM 3270 Semi-Narrow';-inkscape-font-specification:'IBM 3270 Semi-Narrow'" id="path420" d="m 167.82354,51.129813 v -5.331859 h -8.24387 l -1.76362,1.80463 v 1.7226 l 1.7226,1.845644 z m 2.46086,0.04102 h 2.50187 v 2.378829 h -13.7808 q -0.49217,0 -0.8613,-0.369128 l -2.37883,-2.542887 q -0.36913,-0.369129 -0.36913,-0.8613 v -2.66593 q 0,-0.492172 0.36913,-0.8613 l 2.41984,-2.501873 q 0.32812,-0.328114 0.8613,-0.328114 h 8.77706 v -3.199116 l -1.68158,-1.7226 h -8.36692 v -2.419844 h 8.85909 q 0.49217,0 0.8613,0.369129 l 2.41984,2.460858 q 0.36913,0.369128 0.36913,0.820286 z"/><path style="font-family:'IBM 3270 Semi-Narrow';-inkscape-font-specification:'IBM 3270 Semi-Narrow'" id="path422" d="M 175.57527,53.467629 V 28.571948 h 2.46086 v 7.546631 h 6.39823 q 0.49217,0 0.8613,0.369129 l 4.8807,4.96273 q 0.36913,0.369129 0.36913,0.861301 v 5.044759 q 0,0.492171 -0.36913,0.8613 l -5.04476,4.962731 q -0.2871,0.2871 -0.8613,0.2871 z m 2.46086,-2.337816 h 5.742 l 4.34751,-4.265487 V 42.80391 l -4.18345,-4.265487 h -5.90606 z"/><path style="font-family:'IBM 3270 Semi-Narrow';-inkscape-font-specification:'IBM 3270 Semi-Narrow'" id="path424" d="m 208.14065,40.343052 -1.80463,-1.804629 h -6.31621 l -1.18941,1.230429 11.44299,9.064161 q 0.45116,0.369128 0.45116,0.902314 0,0.5742 -0.36913,0.943329 l -2.5839,2.542887 q -0.36913,0.369129 -0.8613,0.369129 l -7.38258,-0.04101 q -0.53318,0 -0.8613,-0.328114 l -2.54288,-2.460858 q -0.36913,-0.369129 -0.36913,-0.902315 v -1.1484 h 2.46085 v 0.615214 l 1.80463,1.763615 6.39824,0.04101 1.23042,-1.230429 -11.40197,-9.023146 q -0.36913,-0.2871 -0.45116,-0.902314 -0.082,-0.533186 0.32812,-0.943329 l 2.46085,-2.583901 q 0.36913,-0.369129 0.90232,-0.369129 h 7.34156 q 0.49217,0 0.8613,0.369129 l 2.54289,2.501872 q 0.36912,0.369129 0.36912,0.8613 v 1.312458 h -2.46085 z"/></g></svg>